<!-- Generated by IcoMoon.io -->
<svg version="1.1" xmlns="http://www.w3.org/2000/svg" width="878" height="1024" viewBox="0 0 878 1024">
<title/>
<g id="icomoon-ignore">
</g>
<path d="M448.599 307.055c-13.816-15.427-29.824-23.106-47.924-23.106-20.486 0-36.209 7.373-47.167 22.086-10.958 14.668-16.44 32.44-16.44 53.318 0 17.783 3 35.887 9.004 54.347 5.982 18.452 15.77 34.924 29.491 49.443 13.674 14.555 29.586 21.819 47.665 21.819 20.154 0 35.898-6.754 47.189-20.256 11.243-13.484 16.886-30.505 16.886-51.006 0-17.461-2.978-35.744-8.957-54.859-5.95-19.14-15.884-36.41-29.748-51.785zM829.834 115.77c-32.195-32.228-70.965-48.309-116.343-48.309h-548.839c-45.378 0-84.111 16.081-116.343 48.309-32.228 32.159-48.309 70.965-48.309 116.343v548.839c0 45.378 16.081 84.185 48.309 116.413 32.232 32.089 71.035 48.24 116.343 48.24h548.839c45.378 0 84.148-16.151 116.343-48.309 32.232-32.232 48.346-70.965 48.346-116.343v-548.839c0-45.378-16.118-84.185-48.346-116.343zM649.222 295.065v196.159c0 9.081-7.432 16.516-16.516 16.516h-6.081c-9.085 0-16.516-7.432-16.516-16.516v-196.159c0-8.064-1.171-14.796 10.099-16.213v-26.099l-86.757 71.155c1.002 1.859 1.954 3.047 2.857 4.606 7.625 13.495 11.508 30.278 11.508 50.79 0 15.723-2.62 29.846-7.933 42.32-5.288 12.47-11.72 22.656-19.224 30.501-7.505 7.874-15.031 15.071-22.557 21.548-7.527 6.491-13.959 13.259-19.227 20.285-5.31 7.003-7.951 14.244-7.951 21.749 0 7.516 3.429 15.151 10.267 22.846 6.813 7.717 15.195 15.195 25.107 22.583 9.93 7.337 19.839 15.481 29.751 24.343 9.934 8.851 18.269 20.238 25.082 34.065 6.864 13.879 10.289 29.158 10.289 45.952 0 22.155-5.65 42.162-16.911 59.97-11.296 17.732-26.012 31.881-44.094 42.257-18.13 10.446-37.518 18.309-58.195 23.619-20.72 5.262-41.28 7.907-61.814 7.907-12.96 0-26.037-0.998-39.187-3.051-13.197-2.049-26.418-5.668-39.732-10.768-13.341-5.134-25.155-11.438-35.396-19.008-10.267-7.494-18.532-17.164-24.87-28.942-6.337-11.782-9.484-25.023-9.484-39.732 0-17.45 4.859-33.636 14.603-48.726 9.744-14.979 22.652-27.489 38.708-37.398 28.013-17.428 71.964-28.196 131.78-32.265-13.674-17.094-20.534-33.183-20.534-48.24 0-8.565 2.239-17.746 6.67-27.658-7.145 0.998-14.504 1.563-22.012 1.563-32.133 0-59.267-10.446-81.302-31.481-22.034-20.998-33.040-47.284-33.040-79.063 0-3.323 0.095-6.249 0.336-9.492h-130.587l196.905-171.169h326.087l-30.135 23.523v41.518c11.189 1.438 10.007 8.163 10.007 16.205zM450.411 599.828c-3.762-0.68-9.048-1.062-15.862-1.062-14.698 0-29.158 1.299-43.354 3.893-14.197 2.524-28.203 6.787-42.020 12.802-13.868 5.979-25.060 14.771-33.589 26.396-8.576 11.61-12.839 25.283-12.839 41.017 0 14.994 3.762 28.371 11.292 40.022 7.505 11.577 17.413 20.64 29.729 27.131 12.316 6.502 25.228 11.413 38.708 14.639 13.506 3.206 27.251 4.87 41.258 4.87 27.702 0 51.55-6.238 71.558-18.712 19.963-12.47 29.967-31.726 29.967-57.719 0-5.467-0.761-10.848-2.265-16.103-1.57-5.313-3.122-9.861-4.643-13.637-1.526-3.707-4.431-8.17-8.719-13.315-4.263-5.16-7.527-8.971-9.722-11.508-2.239-2.62-6.429-6.359-12.601-11.303-6.121-4.965-10.029-8.061-11.767-9.205-1.716-1.204-6.169-4.456-13.341-9.733-7.167-5.32-11.097-8.141-11.789-8.474z"/>
</svg>