<?xml version="1.0" encoding="UTF-8" standalone="no"?>
<!DOCTYPE svg PUBLIC "-//W3C//DTD SVG 1.1//EN"
 "http://www.w3.org/Graphics/SVG/1.1/DTD/svg11.dtd">
<!-- Generated by graphviz version 2.40.1 (20161225.0304)
 -->
<!-- Title: %3 Pages: 1 -->
<svg width="156pt" height="299pt"
 viewBox="0.00 0.00 156.00 299.00" xmlns="http://www.w3.org/2000/svg" xmlns:xlink="http://www.w3.org/1999/xlink">
<g id="graph0" class="graph" transform="scale(1 1) rotate(0) translate(4 295)">
<title>%3</title>
<polygon fill="#ffffff" stroke="transparent" points="-4,4 -4,-295 152,-295 152,4 -4,4"/>
<!-- fake -->
<g id="node1" class="node">
<title>fake</title>
</g>
<!-- 0 -->
<g id="node2" class="node">
<title>0</title>
<ellipse fill="none" stroke="#000000" cx="111" cy="-200" rx="27" ry="18"/>
<text text-anchor="middle" x="111" y="-196.3" font-family="Times,serif" font-size="14.00" fill="#000000">0</text>
</g>
<!-- fake&#45;&gt;0 -->
<g id="edge1" class="edge">
<title>fake&#45;&gt;0</title>
<path fill="none" stroke="#000000" stroke-width="2" d="M111,-254.9551C111,-246.8828 111,-237.1764 111,-228.1817"/>
<polygon fill="#000000" stroke="#000000" stroke-width="2" points="114.5001,-228.0903 111,-218.0904 107.5001,-228.0904 114.5001,-228.0903"/>
</g>
<!-- 1 -->
<g id="node3" class="node">
<title>1</title>
<ellipse fill="none" stroke="#000000" cx="27" cy="-113" rx="27" ry="18"/>
<text text-anchor="middle" x="27" y="-109.3" font-family="Times,serif" font-size="14.00" fill="#000000">1</text>
</g>
<!-- 0&#45;&gt;1 -->
<g id="edge3" class="edge">
<title>0&#45;&gt;1</title>
<path fill="none" stroke="#000000" d="M96.3683,-184.8458C83.3193,-171.3307 64.0274,-151.3498 49.0987,-135.8879"/>
<polygon fill="#000000" stroke="#000000" points="51.2097,-133.0354 41.7459,-128.2725 46.1739,-137.8976 51.2097,-133.0354"/>
<text text-anchor="middle" x="91" y="-152.8" font-family="Times,serif" font-size="14.00" fill="#000000">0, 0.4</text>
</g>
<!-- 2 -->
<g id="node4" class="node">
<title>2</title>
<ellipse fill="none" stroke="#000000" cx="83" cy="-22" rx="18" ry="18"/>
<ellipse fill="none" stroke="#000000" cx="83" cy="-22" rx="22" ry="22"/>
<text text-anchor="middle" x="83" y="-18.3" font-family="Times,serif" font-size="14.00" fill="#000000">2</text>
</g>
<!-- 0&#45;&gt;2 -->
<g id="edge4" class="edge">
<title>0&#45;&gt;2</title>
<path fill="none" stroke="#000000" d="M113.65,-181.9609C116.2183,-160.8793 118.9339,-125.0503 113,-95 110.0175,-79.8961 103.8739,-63.988 97.9187,-50.8913"/>
<polygon fill="#000000" stroke="#000000" points="100.9046,-49.0193 93.4569,-41.484 94.5799,-52.0192 100.9046,-49.0193"/>
<text text-anchor="middle" x="132" y="-109.3" font-family="Times,serif" font-size="14.00" fill="#000000">1, 0.6</text>
</g>
<!-- 1&#45;&gt;1 -->
<g id="edge2" class="edge">
<title>1&#45;&gt;1</title>
<path fill="none" stroke="#000000" d="M51.5325,-120.752C62.5078,-121.4902 72,-118.9063 72,-113 72,-109.0317 67.7151,-106.5632 61.5743,-105.5944"/>
<polygon fill="#000000" stroke="#000000" points="61.6472,-102.0949 51.5325,-105.248 61.4059,-109.0908 61.6472,-102.0949"/>
<text text-anchor="middle" x="88" y="-109.3" font-family="Times,serif" font-size="14.00" fill="#000000">1, 0.7</text>
</g>
<!-- 1&#45;&gt;2 -->
<g id="edge5" class="edge">
<title>1&#45;&gt;2</title>
<path fill="none" stroke="#000000" d="M37.2713,-96.3092C45.3482,-83.1842 56.7687,-64.6259 66.1757,-49.3394"/>
<polygon fill="#000000" stroke="#000000" points="69.1811,-51.1338 71.4413,-40.7828 63.2195,-47.4651 69.1811,-51.1338"/>
<text text-anchor="middle" x="75" y="-65.8" font-family="Times,serif" font-size="14.00" fill="#000000">0, 0.3</text>
</g>
</g>
</svg>
